<?xml version="1.0" encoding="UTF-8" standalone="no"?>
<!DOCTYPE svg PUBLIC "-//W3C//DTD SVG 1.1//EN" "http://www.w3.org/Graphics/SVG/1.1/DTD/svg11.dtd">
<svg width="100%" height="100%" viewBox="0 0 180 125" version="1.1" xmlns="http://www.w3.org/2000/svg" xmlns:xlink="http://www.w3.org/1999/xlink" xml:space="preserve" xmlns:serif="http://www.serif.com/" style="fill-rule:evenodd;clip-rule:evenodd;stroke-linejoin:round;stroke-miterlimit:1.41421;">
  <g id="Design" onmouseenter="javascript:alert('hovering')">
    <path fill="#d4d4d4" d="M0 0h180v125H0z"/>
  </g>
  <g id="Keys">
    <path id="Key_D" d="M169.339,114.051c0,0.277 -0.223,0.5 -0.5,0.5c0,0 -0.033,0 -0.09,0c-9.57,0 -37.764,0 -47.334,0c-0.057,0 -0.09,0 -0.09,0c-0.276,0 -0.5,-0.223 -0.5,-0.5c0,0 0,-0.033 0,-0.09c0,-9.57 0,-37.764 0,-47.334c0,-0.057 0,-0.09 0,-0.09c0,-0.277 0.224,-0.5 0.5,-0.5l47.514,0c0.277,0 0.5,0.223 0.5,0.5l0,47.514Z" style="fill:#da0000;fill-rule:nonzero;"/>
    <path id="Key_C" d="M113.927,114.051c0,0.277 -0.223,0.5 -0.5,0.5c0,0 -0.033,0 -0.09,0c-9.57,0 -37.764,0 -47.334,0c-0.057,0 -0.09,0 -0.09,0c-0.276,0 -0.5,-0.223 -0.5,-0.5c0,0 0,-0.033 0,-0.09c0,-9.57 0,-37.764 0,-47.334c0,-0.057 0,-0.09 0,-0.09c0,-0.277 0.224,-0.5 0.5,-0.5l47.514,0c0.277,0 0.5,0.223 0.5,0.5l0,47.514Z" style="fill:#da0000;fill-rule:nonzero;"/>
    <path id="Key_B" d="M58.514,114.051c0,0.277 -0.223,0.5 -0.5,0.5c0,0 -0.033,0 -0.09,0c-9.57,0 -37.764,0 -47.334,0c-0.057,0 -0.09,0 -0.09,0c-0.276,0 -0.5,-0.223 -0.5,-0.5c0,0 0,-0.033 0,-0.09c0,-9.57 0,-37.764 0,-47.334c0,-0.057 0,-0.09 0,-0.09c0,-0.277 0.224,-0.5 0.5,-0.5l47.514,0c0.277,0 0.5,0.223 0.5,0.5l0,47.514Z" style="fill:#da0000;fill-rule:nonzero;"/>
    <path id="Key_A" d="M113.927,59.014c0,0.277 -0.223,0.5 -0.5,0.5c0,0 -0.033,0 -0.09,0c-9.57,0 -37.764,0 -47.334,0c-0.057,0 -0.09,0 -0.09,0c-0.276,0 -0.5,-0.223 -0.5,-0.5c0,0 0,-0.033 0,-0.09c0,-9.57 0,-37.764 0,-47.334c0,-0.057 0,-0.09 0,-0.09c0,-0.277 0.224,-0.5 0.5,-0.5l47.514,0c0.277,0 0.5,0.223 0.5,0.5l0,47.514Z" style="fill:#da0000;fill-rule:nonzero;"/>
  </g>
  <g id="Labels">
    <text id="Label_D" x="124.874px" y="79.627px" style="font-family:'ArialMT', 'Arial', sans-serif;font-size:12px;fill:#fff;">D</text>
    <text id="Label_C" x="70.261px" y="79.773px" style="font-family:'ArialMT', 'Arial', sans-serif;font-size:12px;fill:#fff;">C</text>
    <text id="Label_B" x="14.121px" y="79.627px" style="font-family:'ArialMT', 'Arial', sans-serif;font-size:12px;fill:#fff;">B</text>
    <text id="Label_A" x="70.431px" y="23.59px" style="font-family:'ArialMT', 'Arial', sans-serif;font-size:12px;fill:#fff;">A</text>
  </g>
</svg>
