<?xml version="1.0" encoding="UTF-8" standalone="no"?><!DOCTYPE svg PUBLIC "-//W3C//DTD SVG 1.1//EN" "http://www.w3.org/Graphics/SVG/1.1/DTD/svg11.dtd"><svg width="100%" height="100%" viewBox="0 0 260 260" version="1.1" xmlns="http://www.w3.org/2000/svg" xmlns:xlink="http://www.w3.org/1999/xlink" xml:space="preserve" xmlns:serif="http://www.serif.com/" style="fill-rule:evenodd;clip-rule:evenodd;stroke-linejoin:round;stroke-miterlimit:1.41421;"><path d="M210,0l0.323,0.001l0.323,0.003l0.323,0.005l0.322,0.007l0.321,0.009l0.321,0.012l0.32,0.013l0.32,0.015l0.319,0.017l0.319,0.019l0.318,0.022l0.318,0.023l0.317,0.025l0.317,0.027l0.316,0.029l0.315,0.031l0.315,0.033l0.314,0.035l0.314,0.037l0.313,0.039l0.313,0.04l0.312,0.043l0.311,0.045l0.311,0.046l0.31,0.048l0.309,0.051l0.309,0.052l0.308,0.054l0.307,0.056l0.307,0.058l0.306,0.059l0.306,0.062l0.305,0.063l0.304,0.065l0.303,0.067l0.303,0.069l0.302,0.071l0.301,0.073l0.301,0.074l0.3,0.076l0.299,0.078l0.298,0.08l0.298,0.081l0.297,0.084l0.296,0.085l0.296,0.087l0.295,0.088l0.293,0.091l0.294,0.092l0.292,0.094l0.292,0.096l0.29,0.097l0.29,0.099l0.29,0.101l0.288,0.103l0.288,0.104l0.286,0.106l0.286,0.108l0.285,0.109l0.285,0.111l0.283,0.113l0.283,0.114l0.281,0.116l0.281,0.118l0.28,0.12l0.279,0.121l0.279,0.122l0.277,0.125l0.276,0.126l0.276,0.127l0.274,0.13l0.274,0.131l0.273,0.132l0.272,0.134l0.271,0.136l0.27,0.137l0.269,0.139l0.268,0.14l0.267,0.142l0.266,0.144l0.265,0.145l0.264,0.146l0.264,0.149l0.262,0.149l0.261,0.152l0.26,0.153l0.26,0.154l0.258,0.156l0.257,0.157l0.256,0.159l0.255,0.16l0.254,0.162l0.254,0.163l0.252,0.165l0.251,0.166l0.249,0.168l0.249,0.169l0.248,0.171l0.247,0.172l0.245,0.174l0.245,0.175l0.243,0.176l0.243,0.178l0.241,0.179l0.24,0.181l0.239,0.182l0.238,0.183l0.236,0.185l0.236,0.187l0.234,0.187l0.234,0.189l0.232,0.191l0.231,0.191l0.229,0.193l0.229,0.195l0.227,0.196l0.226,0.197l0.225,0.198l0.224,0.2l0.223,0.201l0.221,0.203l0.22,0.203l0.219,0.205l0.218,0.207l0.216,0.207l0.216,0.209l0.214,0.21l0.212,0.212l0.212,0.212l0.21,0.214l0.209,0.216l0.207,0.216l0.207,0.218l0.205,0.219l0.203,0.22l0.203,0.221l0.201,0.223l0.2,0.224l0.198,0.225l0.197,0.226l0.196,0.227l0.195,0.229l0.193,0.229l0.191,0.231l0.191,0.232l0.189,0.234l0.187,0.234l0.187,0.236l0.185,0.236l0.183,0.238l0.182,0.239l0.181,0.24l0.179,0.241l0.178,0.243l0.176,0.243l0.175,0.245l0.174,0.245l0.172,0.247l0.171,0.248l0.169,0.249l0.168,0.249l0.166,0.251l0.165,0.252l0.163,0.254l0.162,0.254l0.16,0.255l0.159,0.256l0.157,0.257l0.156,0.258l0.154,0.26l0.153,0.26l0.152,0.261l0.149,0.262l0.149,0.264l0.146,0.264l0.145,0.265l0.144,0.266l0.142,0.267l0.14,0.268l0.139,0.269l0.137,0.27l0.136,0.271l0.134,0.272l0.132,0.273l0.131,0.274l0.13,0.274l0.127,0.276l0.126,0.276l0.125,0.277l0.122,0.279l0.121,0.279l0.12,0.28l0.118,0.281l0.116,0.281l0.114,0.283l0.113,0.283l0.111,0.285l0.109,0.285l0.108,0.286l0.106,0.286l0.104,0.288l0.103,0.288l0.101,0.29l0.099,0.29l0.097,0.29l0.096,0.292l0.094,0.292l0.092,0.294l0.091,0.293l0.088,0.295l0.087,0.296l0.085,0.296l0.084,0.297l0.081,0.298l0.08,0.298l0.078,0.299l0.076,0.3l0.074,0.301l0.073,0.301l0.071,0.302l0.069,0.303l0.067,0.303l0.065,0.304l0.063,0.305l0.062,0.306l0.059,0.306l0.058,0.307l0.056,0.307l0.054,0.308l0.052,0.309l0.051,0.309l0.048,0.31l0.046,0.311l0.045,0.311l0.043,0.312l0.04,0.313l0.039,0.313l0.037,0.314l0.035,0.314l0.033,0.315l0.031,0.315l0.029,0.316l0.027,0.317l0.025,0.317l0.023,0.318l0.022,0.318l0.019,0.319l0.017,0.319l0.015,0.32l0.013,0.32l0.012,0.321l0.009,0.321l0.007,0.322l0.005,0.323l0.003,0.323l0.001,0.323l0,160l-0.001,0.323l-0.003,0.323l-0.005,0.323l-0.007,0.322l-0.009,0.321l-0.012,0.321l-0.013,0.32l-0.015,0.32l-0.017,0.319l-0.019,0.319l-0.022,0.318l-0.023,0.318l-0.025,0.317l-0.027,0.317l-0.029,0.316l-0.031,0.315l-0.033,0.315l-0.035,0.314l-0.037,0.314l-0.039,0.313l-0.04,0.313l-0.043,0.312l-0.045,0.311l-0.046,0.311l-0.048,0.31l-0.051,0.309l-0.052,0.309l-0.054,0.308l-0.056,0.307l-0.058,0.307l-0.059,0.306l-0.062,0.306l-0.063,0.305l-0.065,0.304l-0.067,0.303l-0.069,0.303l-0.071,0.302l-0.073,0.301l-0.074,0.301l-0.076,0.3l-0.078,0.299l-0.08,0.298l-0.081,0.298l-0.084,0.297l-0.085,0.296l-0.087,0.296l-0.088,0.295l-0.091,0.293l-0.092,0.294l-0.094,0.292l-0.096,0.292l-0.097,0.29l-0.099,0.29l-0.101,0.29l-0.103,0.288l-0.104,0.288l-0.106,0.286l-0.108,0.286l-0.109,0.285l-0.111,0.285l-0.113,0.283l-0.114,0.283l-0.116,0.281l-0.118,0.281l-0.12,0.28l-0.121,0.279l-0.122,0.279l-0.125,0.277l-0.126,0.276l-0.127,0.276l-0.13,0.274l-0.131,0.274l-0.132,0.273l-0.134,0.272l-0.136,0.271l-0.137,0.27l-0.139,0.269l-0.14,0.268l-0.142,0.267l-0.144,0.266l-0.145,0.265l-0.146,0.264l-0.149,0.264l-0.149,0.262l-0.152,0.261l-0.153,0.26l-0.154,0.26l-0.156,0.258l-0.157,0.257l-0.159,0.256l-0.16,0.255l-0.162,0.254l-0.163,0.254l-0.165,0.252l-0.166,0.251l-0.168,0.249l-0.169,0.249l-0.171,0.248l-0.172,0.247l-0.174,0.245l-0.175,0.245l-0.176,0.243l-0.178,0.243l-0.179,0.241l-0.181,0.24l-0.182,0.239l-0.183,0.238l-0.185,0.236l-0.187,0.236l-0.187,0.234l-0.189,0.234l-0.191,0.232l-0.191,0.231l-0.193,0.229l-0.195,0.229l-0.196,0.227l-0.197,0.226l-0.198,0.225l-0.2,0.224l-0.201,0.223l-0.203,0.221l-0.203,0.22l-0.205,0.219l-0.207,0.218l-0.207,0.216l-0.209,0.216l-0.21,0.214l-0.212,0.212l-0.212,0.212l-0.214,0.21l-0.216,0.209l-0.216,0.207l-0.218,0.207l-0.219,0.205l-0.22,0.203l-0.221,0.203l-0.223,0.201l-0.224,0.2l-0.225,0.198l-0.226,0.197l-0.227,0.196l-0.229,0.195l-0.229,0.193l-0.231,0.191l-0.232,0.191l-0.234,0.189l-0.234,0.187l-0.236,0.187l-0.236,0.185l-0.238,0.183l-0.239,0.182l-0.24,0.181l-0.241,0.179l-0.243,0.178l-0.243,0.176l-0.245,0.175l-0.245,0.174l-0.247,0.172l-0.248,0.171l-0.249,0.169l-0.249,0.168l-0.251,0.166l-0.252,0.165l-0.254,0.163l-0.254,0.162l-0.255,0.16l-0.256,0.159l-0.257,0.157l-0.258,0.156l-0.26,0.154l-0.26,0.153l-0.261,0.152l-0.262,0.149l-0.264,0.149l-0.264,0.146l-0.265,0.145l-0.266,0.144l-0.267,0.142l-0.268,0.14l-0.269,0.139l-0.27,0.137l-0.271,0.136l-0.272,0.134l-0.273,0.132l-0.274,0.131l-0.274,0.13l-0.276,0.127l-0.276,0.126l-0.277,0.125l-0.279,0.122l-0.279,0.121l-0.28,0.12l-0.281,0.118l-0.281,0.116l-0.283,0.114l-0.283,0.113l-0.285,0.111l-0.285,0.109l-0.286,0.108l-0.286,0.106l-0.288,0.104l-0.288,0.103l-0.29,0.101l-0.29,0.099l-0.29,0.097l-0.292,0.096l-0.292,0.094l-0.294,0.092l-0.293,0.091l-0.295,0.088l-0.296,0.087l-0.296,0.085l-0.297,0.084l-0.298,0.081l-0.298,0.08l-0.299,0.078l-0.3,0.076l-0.301,0.074l-0.301,0.073l-0.302,0.071l-0.303,0.069l-0.303,0.067l-0.304,0.065l-0.305,0.063l-0.306,0.062l-0.306,0.059l-0.307,0.058l-0.307,0.056l-0.308,0.054l-0.309,0.052l-0.309,0.051l-0.31,0.048l-0.311,0.046l-0.311,0.045l-0.312,0.043l-0.313,0.04l-0.313,0.039l-0.314,0.037l-0.314,0.035l-0.315,0.033l-0.315,0.031l-0.316,0.029l-0.317,0.027l-0.317,0.025l-0.318,0.023l-0.318,0.022l-0.319,0.019l-0.319,0.017l-0.32,0.015l-0.32,0.013l-0.321,0.012l-0.321,0.009l-0.322,0.007l-0.323,0.005l-0.323,0.003l-0.323,0.001l-160,0l-0.323,-0.001l-0.323,-0.003l-0.323,-0.005l-0.322,-0.007l-0.321,-0.009l-0.321,-0.012l-0.32,-0.013l-0.32,-0.015l-0.319,-0.017l-0.319,-0.019l-0.318,-0.022l-0.318,-0.023l-0.317,-0.025l-0.317,-0.027l-0.316,-0.029l-0.315,-0.031l-0.315,-0.033l-0.314,-0.035l-0.314,-0.037l-0.313,-0.039l-0.313,-0.04l-0.312,-0.043l-0.311,-0.045l-0.311,-0.046l-0.31,-0.048l-0.309,-0.051l-0.309,-0.052l-0.308,-0.054l-0.307,-0.056l-0.307,-0.058l-0.306,-0.059l-0.306,-0.062l-0.305,-0.063l-0.304,-0.065l-0.303,-0.067l-0.303,-0.069l-0.302,-0.071l-0.301,-0.073l-0.301,-0.074l-0.3,-0.076l-0.299,-0.078l-0.298,-0.08l-0.298,-0.081l-0.297,-0.084l-0.296,-0.085l-0.296,-0.087l-0.295,-0.088l-0.293,-0.091l-0.294,-0.092l-0.292,-0.094l-0.292,-0.096l-0.29,-0.097l-0.29,-0.099l-0.29,-0.101l-0.288,-0.103l-0.288,-0.104l-0.286,-0.106l-0.286,-0.108l-0.285,-0.109l-0.285,-0.111l-0.283,-0.113l-0.283,-0.114l-0.281,-0.116l-0.281,-0.118l-0.28,-0.12l-0.279,-0.121l-0.279,-0.122l-0.277,-0.125l-0.276,-0.126l-0.276,-0.127l-0.274,-0.13l-0.274,-0.131l-0.273,-0.132l-0.272,-0.134l-0.271,-0.136l-0.27,-0.137l-0.269,-0.139l-0.268,-0.14l-0.267,-0.142l-0.266,-0.144l-0.265,-0.145l-0.264,-0.146l-0.264,-0.149l-0.262,-0.149l-0.261,-0.152l-0.26,-0.153l-0.26,-0.154l-0.258,-0.156l-0.257,-0.157l-0.256,-0.159l-0.255,-0.16l-0.254,-0.162l-0.254,-0.163l-0.252,-0.165l-0.251,-0.166l-0.249,-0.168l-0.249,-0.169l-0.248,-0.171l-0.247,-0.172l-0.245,-0.174l-0.245,-0.175l-0.243,-0.176l-0.243,-0.178l-0.241,-0.179l-0.24,-0.181l-0.239,-0.182l-0.238,-0.183l-0.236,-0.185l-0.236,-0.187l-0.234,-0.187l-0.234,-0.189l-0.232,-0.191l-0.231,-0.191l-0.229,-0.193l-0.229,-0.195l-0.227,-0.196l-0.226,-0.197l-0.225,-0.198l-0.224,-0.2l-0.223,-0.201l-0.221,-0.203l-0.22,-0.203l-0.219,-0.205l-0.218,-0.207l-0.216,-0.207l-0.216,-0.209l-0.214,-0.21l-0.212,-0.212l-0.212,-0.212l-0.21,-0.214l-0.209,-0.216l-0.207,-0.216l-0.207,-0.218l-0.205,-0.219l-0.203,-0.22l-0.203,-0.221l-0.201,-0.223l-0.2,-0.224l-0.198,-0.225l-0.197,-0.226l-0.196,-0.227l-0.195,-0.229l-0.193,-0.229l-0.191,-0.231l-0.191,-0.232l-0.189,-0.234l-0.187,-0.234l-0.187,-0.236l-0.185,-0.236l-0.183,-0.238l-0.182,-0.239l-0.181,-0.24l-0.179,-0.241l-0.178,-0.243l-0.176,-0.243l-0.175,-0.245l-0.174,-0.245l-0.172,-0.247l-0.171,-0.248l-0.169,-0.249l-0.168,-0.249l-0.166,-0.251l-0.165,-0.252l-0.163,-0.254l-0.162,-0.254l-0.16,-0.255l-0.159,-0.256l-0.157,-0.257l-0.156,-0.258l-0.154,-0.26l-0.153,-0.26l-0.152,-0.261l-0.149,-0.262l-0.149,-0.264l-0.146,-0.264l-0.145,-0.265l-0.144,-0.266l-0.142,-0.267l-0.14,-0.268l-0.139,-0.269l-0.137,-0.27l-0.136,-0.271l-0.134,-0.272l-0.132,-0.273l-0.131,-0.274l-0.13,-0.274l-0.127,-0.276l-0.126,-0.276l-0.125,-0.277l-0.122,-0.279l-0.121,-0.279l-0.12,-0.28l-0.118,-0.281l-0.116,-0.281l-0.114,-0.283l-0.113,-0.283l-0.111,-0.285l-0.109,-0.285l-0.108,-0.286l-0.106,-0.286l-0.104,-0.288l-0.103,-0.288l-0.101,-0.29l-0.099,-0.29l-0.097,-0.29l-0.096,-0.292l-0.094,-0.292l-0.092,-0.294l-0.091,-0.293l-0.088,-0.295l-0.087,-0.296l-0.085,-0.296l-0.084,-0.297l-0.081,-0.298l-0.08,-0.298l-0.078,-0.299l-0.076,-0.3l-0.074,-0.301l-0.073,-0.301l-0.071,-0.302l-0.069,-0.303l-0.067,-0.303l-0.065,-0.304l-0.063,-0.305l-0.062,-0.306l-0.059,-0.306l-0.058,-0.307l-0.056,-0.307l-0.054,-0.308l-0.052,-0.309l-0.051,-0.309l-0.048,-0.31l-0.046,-0.311l-0.045,-0.311l-0.043,-0.312l-0.04,-0.313l-0.039,-0.313l-0.037,-0.314l-0.035,-0.314l-0.033,-0.315l-0.031,-0.315l-0.029,-0.316l-0.027,-0.317l-0.025,-0.317l-0.023,-0.318l-0.022,-0.318l-0.019,-0.319l-0.017,-0.319l-0.015,-0.32l-0.013,-0.32l-0.012,-0.321l-0.009,-0.321l-0.007,-0.322l-0.005,-0.323l-0.003,-0.323l-0.001,-0.323l0,-160l0.001,-0.323l0.003,-0.323l0.005,-0.323l0.007,-0.322l0.009,-0.321l0.012,-0.321l0.013,-0.32l0.015,-0.32l0.017,-0.319l0.019,-0.319l0.022,-0.318l0.023,-0.318l0.025,-0.317l0.027,-0.317l0.029,-0.316l0.031,-0.315l0.033,-0.315l0.035,-0.314l0.037,-0.314l0.039,-0.313l0.04,-0.313l0.043,-0.312l0.045,-0.311l0.046,-0.311l0.048,-0.31l0.051,-0.309l0.052,-0.309l0.054,-0.308l0.056,-0.307l0.058,-0.307l0.059,-0.306l0.062,-0.306l0.063,-0.305l0.065,-0.304l0.067,-0.303l0.069,-0.303l0.071,-0.302l0.073,-0.301l0.074,-0.301l0.076,-0.3l0.078,-0.299l0.08,-0.298l0.081,-0.298l0.084,-0.297l0.085,-0.296l0.087,-0.296l0.088,-0.295l0.091,-0.293l0.092,-0.294l0.094,-0.292l0.096,-0.292l0.097,-0.29l0.099,-0.29l0.101,-0.29l0.103,-0.288l0.104,-0.288l0.106,-0.286l0.108,-0.286l0.109,-0.285l0.111,-0.285l0.113,-0.283l0.114,-0.283l0.116,-0.281l0.118,-0.281l0.12,-0.28l0.121,-0.279l0.122,-0.279l0.125,-0.277l0.126,-0.276l0.127,-0.276l0.13,-0.274l0.131,-0.274l0.132,-0.273l0.134,-0.272l0.136,-0.271l0.137,-0.27l0.139,-0.269l0.14,-0.268l0.142,-0.267l0.144,-0.266l0.145,-0.265l0.146,-0.264l0.149,-0.264l0.149,-0.262l0.152,-0.261l0.153,-0.26l0.154,-0.26l0.156,-0.258l0.157,-0.257l0.159,-0.256l0.16,-0.255l0.162,-0.254l0.163,-0.254l0.165,-0.252l0.166,-0.251l0.168,-0.249l0.169,-0.249l0.171,-0.248l0.172,-0.247l0.174,-0.245l0.175,-0.245l0.176,-0.243l0.178,-0.243l0.179,-0.241l0.181,-0.24l0.182,-0.239l0.183,-0.238l0.185,-0.236l0.187,-0.236l0.187,-0.234l0.189,-0.234l0.191,-0.232l0.191,-0.231l0.193,-0.229l0.195,-0.229l0.196,-0.227l0.197,-0.226l0.198,-0.225l0.2,-0.224l0.201,-0.223l0.203,-0.221l0.203,-0.22l0.205,-0.219l0.207,-0.218l0.207,-0.216l0.209,-0.216l0.21,-0.214l0.212,-0.212l0.212,-0.212l0.214,-0.21l0.216,-0.209l0.216,-0.207l0.218,-0.207l0.219,-0.205l0.22,-0.203l0.221,-0.203l0.223,-0.201l0.224,-0.2l0.225,-0.198l0.226,-0.197l0.227,-0.196l0.229,-0.195l0.229,-0.193l0.231,-0.191l0.232,-0.191l0.234,-0.189l0.234,-0.187l0.236,-0.187l0.236,-0.185l0.238,-0.183l0.239,-0.182l0.24,-0.181l0.241,-0.179l0.243,-0.178l0.243,-0.176l0.245,-0.175l0.245,-0.174l0.247,-0.172l0.248,-0.171l0.249,-0.169l0.249,-0.168l0.251,-0.166l0.252,-0.165l0.254,-0.163l0.254,-0.162l0.255,-0.16l0.256,-0.159l0.257,-0.157l0.258,-0.156l0.26,-0.154l0.26,-0.153l0.261,-0.152l0.262,-0.149l0.264,-0.149l0.264,-0.146l0.265,-0.145l0.266,-0.144l0.267,-0.142l0.268,-0.14l0.269,-0.139l0.27,-0.137l0.271,-0.136l0.272,-0.134l0.273,-0.132l0.274,-0.131l0.274,-0.13l0.276,-0.127l0.276,-0.126l0.277,-0.125l0.279,-0.122l0.279,-0.121l0.28,-0.12l0.281,-0.118l0.281,-0.116l0.283,-0.114l0.283,-0.113l0.285,-0.111l0.285,-0.109l0.286,-0.108l0.286,-0.106l0.288,-0.104l0.288,-0.103l0.29,-0.101l0.29,-0.099l0.29,-0.097l0.292,-0.096l0.292,-0.094l0.294,-0.092l0.293,-0.091l0.295,-0.088l0.296,-0.087l0.296,-0.085l0.297,-0.084l0.298,-0.081l0.298,-0.08l0.299,-0.078l0.3,-0.076l0.301,-0.074l0.301,-0.073l0.302,-0.071l0.303,-0.069l0.303,-0.067l0.304,-0.065l0.305,-0.063l0.306,-0.062l0.306,-0.059l0.307,-0.058l0.307,-0.056l0.308,-0.054l0.309,-0.052l0.309,-0.051l0.31,-0.048l0.311,-0.046l0.311,-0.045l0.312,-0.043l0.313,-0.04l0.313,-0.039l0.314,-0.037l0.314,-0.035l0.315,-0.033l0.315,-0.031l0.316,-0.029l0.317,-0.027l0.317,-0.025l0.318,-0.023l0.318,-0.022l0.319,-0.019l0.319,-0.017l0.32,-0.015l0.32,-0.013l0.321,-0.012l0.321,-0.009l0.322,-0.007l0.323,-0.005l0.323,-0.003l0.323,-0.001l160,0Zm-160.171,24.001l-0.171,0.001l-0.171,0.003l-0.17,0.004l-0.169,0.005l-0.169,0.005l-0.169,0.007l-0.168,0.008l-0.168,0.009l-0.167,0.011l-0.167,0.011l-0.166,0.012l-0.166,0.013l-0.166,0.014l-0.165,0.015l-0.164,0.016l-0.165,0.018l-0.163,0.018l-0.164,0.019l-0.163,0.02l-0.162,0.021l-0.162,0.023l-0.162,0.023l-0.161,0.024l-0.161,0.025l-0.161,0.026l-0.16,0.027l-0.16,0.028l-0.159,0.029l-0.159,0.03l-0.158,0.031l-0.158,0.032l-0.158,0.032l-0.157,0.034l-0.157,0.035l-0.157,0.035l-0.156,0.037l-0.155,0.038l-0.156,0.038l-0.155,0.039l-0.154,0.041l-0.154,0.041l-0.154,0.042l-0.153,0.043l-0.153,0.044l-0.153,0.045l-0.152,0.045l-0.152,0.047l-0.151,0.048l-0.151,0.048l-0.15,0.05l-0.15,0.05l-0.15,0.051l-0.149,0.052l-0.149,0.053l-0.149,0.054l-0.148,0.055l-0.148,0.055l-0.147,0.057l-0.147,0.057l-0.146,0.058l-0.146,0.06l-0.146,0.06l-0.145,0.06l-0.145,0.062l-0.144,0.063l-0.144,0.063l-0.143,0.065l-0.143,0.065l-0.143,0.066l-0.142,0.067l-0.142,0.068l-0.141,0.068l-0.141,0.07l-0.141,0.07l-0.139,0.071l-0.14,0.072l-0.139,0.073l-0.138,0.074l-0.139,0.074l-0.137,0.075l-0.137,0.076l-0.137,0.077l-0.136,0.078l-0.136,0.079l-0.135,0.079l-0.135,0.08l-0.134,0.081l-0.134,0.082l-0.133,0.083l-0.133,0.083l-0.132,0.084l-0.132,0.085l-0.131,0.086l-0.131,0.087l-0.13,0.087l-0.13,0.088l-0.129,0.089l-0.128,0.09l-0.128,0.091l-0.128,0.091l-0.127,0.092l-0.126,0.093l-0.126,0.093l-0.125,0.094l-0.125,0.095l-0.124,0.096l-0.124,0.097l-0.123,0.097l-0.122,0.098l-0.122,0.099l-0.121,0.099l-0.121,0.1l-0.12,0.101l-0.12,0.102l-0.118,0.102l-0.119,0.103l-0.117,0.104l-0.117,0.104l-0.117,0.106l-0.115,0.105l-0.116,0.107l-0.114,0.107l-0.114,0.108l-0.113,0.109l-0.113,0.109l-0.111,0.11l-0.112,0.11l-0.11,0.112l-0.11,0.111l-0.109,0.113l-0.109,0.113l-0.108,0.114l-0.107,0.114l-0.107,0.116l-0.105,0.115l-0.106,0.117l-0.104,0.117l-0.104,0.117l-0.103,0.119l-0.102,0.118l-0.102,0.12l-0.101,0.12l-0.1,0.121l-0.099,0.121l-0.099,0.122l-0.098,0.122l-0.097,0.123l-0.097,0.124l-0.096,0.124l-0.095,0.125l-0.094,0.125l-0.093,0.126l-0.093,0.126l-0.092,0.127l-0.091,0.128l-0.091,0.128l-0.09,0.128l-0.089,0.129l-0.088,0.13l-0.087,0.13l-0.087,0.131l-0.086,0.131l-0.085,0.132l-0.084,0.132l-0.083,0.133l-0.083,0.133l-0.082,0.134l-0.081,0.134l-0.08,0.135l-0.079,0.135l-0.079,0.136l-0.078,0.136l-0.077,0.137l-0.076,0.137l-0.075,0.137l-0.074,0.139l-0.074,0.138l-0.073,0.139l-0.072,0.14l-0.071,0.139l-0.07,0.141l-0.07,0.141l-0.068,0.141l-0.068,0.142l-0.067,0.142l-0.066,0.143l-0.065,0.143l-0.065,0.143l-0.063,0.144l-0.063,0.144l-0.062,0.145l-0.06,0.145l-0.06,0.146l-0.06,0.146l-0.058,0.146l-0.057,0.147l-0.057,0.147l-0.055,0.148l-0.055,0.148l-0.054,0.149l-0.053,0.149l-0.052,0.149l-0.051,0.15l-0.05,0.15l-0.05,0.15l-0.048,0.151l-0.048,0.151l-0.047,0.152l-0.045,0.152l-0.045,0.153l-0.044,0.153l-0.043,0.153l-0.042,0.154l-0.041,0.154l-0.041,0.154l-0.039,0.155l-0.038,0.156l-0.038,0.155l-0.037,0.156l-0.035,0.157l-0.035,0.157l-0.034,0.157l-0.032,0.158l-0.032,0.158l-0.031,0.158l-0.03,0.159l-0.029,0.159l-0.028,0.16l-0.027,0.16l-0.026,0.161l-0.025,0.161l-0.024,0.161l-0.023,0.162l-0.023,0.162l-0.021,0.162l-0.02,0.163l-0.019,0.164l-0.018,0.163l-0.018,0.165l-0.016,0.164l-0.015,0.165l-0.014,0.166l-0.013,0.166l-0.012,0.166l-0.011,0.167l-0.011,0.167l-0.009,0.168l-0.008,0.168l-0.007,0.169l-0.005,0.169l-0.005,0.169l-0.004,0.17l-0.003,0.171l-0.001,0.171l-0.001,0.209l0,159.924l0.001,0.209l0.001,0.171l0.003,0.171l0.004,0.17l0.005,0.169l0.005,0.169l0.007,0.169l0.008,0.168l0.009,0.168l0.011,0.167l0.011,0.167l0.012,0.166l0.013,0.166l0.014,0.166l0.015,0.165l0.016,0.164l0.018,0.165l0.018,0.163l0.019,0.164l0.02,0.163l0.021,0.162l0.023,0.162l0.023,0.162l0.024,0.161l0.025,0.161l0.026,0.161l0.027,0.16l0.028,0.16l0.029,0.159l0.03,0.159l0.031,0.158l0.032,0.158l0.032,0.158l0.034,0.157l0.035,0.157l0.035,0.157l0.037,0.156l0.038,0.155l0.038,0.156l0.039,0.155l0.041,0.154l0.041,0.154l0.042,0.154l0.043,0.153l0.044,0.153l0.045,0.153l0.045,0.152l0.047,0.152l0.048,0.151l0.048,0.151l0.05,0.15l0.05,0.15l0.051,0.15l0.052,0.149l0.053,0.149l0.054,0.149l0.055,0.148l0.055,0.148l0.057,0.147l0.057,0.147l0.058,0.146l0.06,0.146l0.06,0.146l0.06,0.145l0.062,0.145l0.063,0.144l0.063,0.144l0.065,0.144l0.065,0.143l0.066,0.142l0.067,0.142l0.068,0.142l0.068,0.141l0.07,0.141l0.07,0.14l0.071,0.141l0.072,0.139l0.073,0.139l0.074,0.139l0.074,0.138l0.075,0.137l0.076,0.137l0.077,0.137l0.078,0.136l0.079,0.136l0.079,0.135l0.08,0.135l0.081,0.134l0.082,0.134l0.083,0.133l0.083,0.133l0.085,0.132l0.084,0.132l0.086,0.131l0.087,0.131l0.087,0.13l0.088,0.13l0.089,0.129l0.09,0.128l0.091,0.128l0.091,0.128l0.092,0.127l0.093,0.126l0.093,0.126l0.094,0.125l0.095,0.125l0.096,0.124l0.097,0.124l0.097,0.123l0.098,0.122l0.099,0.122l0.099,0.121l0.1,0.121l0.101,0.12l0.102,0.12l0.102,0.118l0.103,0.119l0.104,0.117l0.104,0.117l0.105,0.116l0.106,0.116l0.107,0.116l0.107,0.114l0.108,0.114l0.108,0.113l0.11,0.113l0.11,0.112l0.11,0.111l0.111,0.11l0.112,0.11l0.113,0.11l0.113,0.108l0.114,0.108l0.114,0.107l0.116,0.107l0.115,0.106l0.117,0.105l0.117,0.104l0.117,0.104l0.119,0.103l0.118,0.102l0.12,0.102l0.12,0.101l0.121,0.1l0.121,0.099l0.122,0.099l0.122,0.098l0.123,0.097l0.124,0.097l0.124,0.096l0.125,0.095l0.125,0.094l0.125,0.093l0.127,0.093l0.127,0.092l0.127,0.091l0.129,0.091l0.128,0.09l0.129,0.088l0.13,0.089l0.13,0.087l0.131,0.087l0.131,0.086l0.132,0.084l0.132,0.085l0.133,0.083l0.133,0.083l0.134,0.082l0.134,0.081l0.135,0.08l0.135,0.079l0.136,0.079l0.136,0.077l0.137,0.078l0.137,0.076l0.137,0.075l0.139,0.075l0.138,0.073l0.139,0.073l0.14,0.072l0.139,0.071l0.141,0.07l0.141,0.07l0.141,0.068l0.142,0.068l0.142,0.067l0.143,0.066l0.142,0.065l0.144,0.065l0.144,0.063l0.144,0.063l0.144,0.061l0.146,0.062l0.146,0.06l0.146,0.059l0.146,0.058l0.148,0.057l0.147,0.057l0.146,0.055l0.149,0.055l0.149,0.054l0.148,0.053l0.15,0.052l0.15,0.051l0.15,0.05l0.15,0.05l0.152,0.048l0.151,0.048l0.151,0.046l0.152,0.046l0.153,0.045l0.152,0.044l0.154,0.043l0.154,0.042l0.154,0.042l0.155,0.04l0.154,0.039l0.155,0.038l0.157,0.038l0.156,0.037l0.155,0.035l0.157,0.035l0.159,0.034l0.157,0.032l0.157,0.032l0.16,0.031l0.158,0.03l0.159,0.029l0.16,0.028l0.16,0.027l0.16,0.026l0.162,0.025l0.161,0.024l0.161,0.023l0.163,0.023l0.162,0.021l0.163,0.02l0.163,0.019l0.164,0.018l0.165,0.018l0.165,0.016l0.164,0.015l0.166,0.014l0.166,0.013l0.166,0.012l0.167,0.012l0.167,0.01l0.167,0.009l0.169,0.008l0.169,0.007l0.169,0.005l0.169,0.005l0.17,0.004l0.17,0.003l0.172,0.001l0.21,0.001l159.922,0l0.21,-0.001l0.172,-0.001l0.17,-0.003l0.17,-0.004l0.169,-0.005l0.169,-0.005l0.169,-0.007l0.169,-0.008l0.167,-0.009l0.167,-0.01l0.167,-0.012l0.166,-0.012l0.166,-0.013l0.166,-0.014l0.164,-0.015l0.165,-0.016l0.165,-0.018l0.164,-0.018l0.163,-0.019l0.163,-0.02l0.162,-0.021l0.163,-0.023l0.161,-0.023l0.161,-0.024l0.161,-0.025l0.161,-0.026l0.16,-0.027l0.16,-0.028l0.159,-0.029l0.158,-0.03l0.16,-0.031l0.157,-0.032l0.157,-0.032l0.159,-0.034l0.157,-0.035l0.155,-0.035l0.156,-0.037l0.157,-0.038l0.155,-0.038l0.154,-0.039l0.155,-0.04l0.154,-0.042l0.153,-0.042l0.155,-0.043l0.152,-0.044l0.153,-0.045l0.152,-0.046l0.151,-0.046l0.151,-0.048l0.152,-0.048l0.15,-0.05l0.15,-0.05l0.15,-0.051l0.15,-0.052l0.148,-0.053l0.149,-0.054l0.148,-0.055l0.147,-0.055l0.148,-0.057l0.147,-0.057l0.146,-0.058l0.146,-0.059l0.146,-0.061l0.145,-0.061l0.145,-0.061l0.144,-0.063l0.144,-0.063l0.144,-0.065l0.142,-0.065l0.143,-0.066l0.142,-0.067l0.142,-0.068l0.141,-0.068l0.141,-0.07l0.14,-0.07l0.141,-0.071l0.139,-0.072l0.139,-0.073l0.139,-0.074l0.138,-0.074l0.137,-0.075l0.137,-0.076l0.138,-0.078l0.135,-0.077l0.136,-0.079l0.135,-0.079l0.135,-0.08l0.134,-0.081l0.134,-0.082l0.133,-0.083l0.133,-0.083l0.132,-0.085l0.132,-0.084l0.131,-0.086l0.131,-0.087l0.13,-0.087l0.13,-0.089l0.129,-0.088l0.128,-0.09l0.129,-0.091l0.127,-0.091l0.127,-0.092l0.127,-0.093l0.125,-0.093l0.125,-0.094l0.125,-0.095l0.124,-0.096l0.124,-0.097l0.123,-0.097l0.122,-0.098l0.122,-0.099l0.121,-0.099l0.121,-0.1l0.12,-0.101l0.12,-0.102l0.118,-0.102l0.119,-0.103l0.117,-0.104l0.117,-0.104l0.116,-0.105l0.116,-0.106l0.116,-0.107l0.114,-0.107l0.114,-0.108l0.113,-0.108l0.113,-0.11l0.112,-0.11l0.111,-0.11l0.11,-0.111l0.11,-0.112l0.11,-0.113l0.108,-0.113l0.108,-0.114l0.107,-0.114l0.107,-0.116l0.106,-0.116l0.105,-0.116l0.104,-0.117l0.104,-0.117l0.103,-0.119l0.102,-0.118l0.102,-0.12l0.101,-0.12l0.1,-0.121l0.099,-0.121l0.099,-0.122l0.098,-0.122l0.097,-0.123l0.097,-0.124l0.096,-0.124l0.095,-0.125l0.094,-0.125l0.093,-0.125l0.093,-0.127l0.092,-0.127l0.091,-0.127l0.091,-0.129l0.09,-0.128l0.088,-0.129l0.089,-0.13l0.087,-0.13l0.087,-0.131l0.086,-0.131l0.084,-0.132l0.085,-0.132l0.083,-0.133l0.083,-0.133l0.082,-0.134l0.081,-0.134l0.08,-0.135l0.079,-0.135l0.079,-0.136l0.077,-0.135l0.078,-0.138l0.076,-0.137l0.075,-0.137l0.074,-0.138l0.074,-0.139l0.073,-0.139l0.072,-0.139l0.071,-0.141l0.07,-0.14l0.07,-0.141l0.068,-0.141l0.068,-0.142l0.067,-0.142l0.066,-0.143l0.065,-0.142l0.065,-0.144l0.063,-0.144l0.063,-0.144l0.061,-0.145l0.061,-0.145l0.061,-0.146l0.059,-0.146l0.058,-0.146l0.057,-0.147l0.057,-0.148l0.055,-0.147l0.055,-0.148l0.054,-0.149l0.053,-0.148l0.052,-0.15l0.051,-0.15l0.05,-0.15l0.05,-0.15l0.048,-0.152l0.048,-0.151l0.046,-0.151l0.046,-0.152l0.045,-0.153l0.044,-0.152l0.043,-0.155l0.042,-0.153l0.042,-0.154l0.04,-0.155l0.039,-0.154l0.038,-0.155l0.038,-0.157l0.037,-0.156l0.035,-0.155l0.035,-0.157l0.034,-0.159l0.032,-0.157l0.032,-0.157l0.031,-0.16l0.03,-0.158l0.029,-0.159l0.028,-0.16l0.027,-0.16l0.026,-0.161l0.025,-0.161l0.024,-0.161l0.023,-0.161l0.023,-0.163l0.021,-0.162l0.02,-0.163l0.019,-0.163l0.018,-0.164l0.018,-0.165l0.016,-0.165l0.015,-0.164l0.014,-0.166l0.013,-0.166l0.012,-0.166l0.012,-0.167l0.01,-0.167l0.009,-0.167l0.008,-0.169l0.007,-0.169l0.005,-0.169l0.005,-0.169l0.004,-0.17l0.003,-0.17l0.001,-0.172l0.001,-0.21l0,-159.922l-0.001,-0.21l-0.001,-0.172l-0.003,-0.17l-0.004,-0.17l-0.005,-0.169l-0.005,-0.169l-0.007,-0.169l-0.008,-0.169l-0.009,-0.167l-0.01,-0.167l-0.012,-0.167l-0.012,-0.166l-0.013,-0.166l-0.014,-0.166l-0.015,-0.164l-0.016,-0.165l-0.018,-0.165l-0.018,-0.164l-0.019,-0.163l-0.02,-0.163l-0.021,-0.162l-0.023,-0.163l-0.023,-0.161l-0.024,-0.161l-0.025,-0.162l-0.026,-0.16l-0.027,-0.16l-0.028,-0.16l-0.029,-0.159l-0.03,-0.158l-0.031,-0.16l-0.032,-0.157l-0.032,-0.157l-0.034,-0.159l-0.035,-0.157l-0.035,-0.155l-0.037,-0.156l-0.038,-0.157l-0.038,-0.155l-0.039,-0.154l-0.04,-0.155l-0.042,-0.154l-0.042,-0.154l-0.043,-0.154l-0.044,-0.152l-0.045,-0.153l-0.046,-0.152l-0.046,-0.151l-0.048,-0.151l-0.048,-0.152l-0.05,-0.15l-0.05,-0.15l-0.051,-0.15l-0.052,-0.15l-0.053,-0.148l-0.054,-0.149l-0.055,-0.149l-0.055,-0.146l-0.057,-0.147l-0.057,-0.148l-0.058,-0.146l-0.059,-0.146l-0.06,-0.146l-0.062,-0.146l-0.061,-0.144l-0.063,-0.144l-0.063,-0.144l-0.065,-0.144l-0.065,-0.142l-0.066,-0.143l-0.067,-0.142l-0.068,-0.142l-0.068,-0.141l-0.07,-0.141l-0.07,-0.141l-0.071,-0.139l-0.072,-0.14l-0.073,-0.139l-0.073,-0.138l-0.075,-0.139l-0.075,-0.137l-0.076,-0.137l-0.078,-0.137l-0.077,-0.136l-0.079,-0.136l-0.079,-0.135l-0.08,-0.135l-0.081,-0.134l-0.082,-0.134l-0.083,-0.133l-0.083,-0.133l-0.085,-0.132l-0.084,-0.132l-0.086,-0.131l-0.087,-0.131l-0.087,-0.13l-0.089,-0.13l-0.088,-0.129l-0.09,-0.128l-0.091,-0.129l-0.091,-0.127l-0.092,-0.127l-0.093,-0.126l-0.093,-0.126l-0.094,-0.125l-0.095,-0.125l-0.096,-0.124l-0.097,-0.124l-0.097,-0.123l-0.098,-0.122l-0.099,-0.122l-0.099,-0.121l-0.1,-0.121l-0.101,-0.12l-0.102,-0.12l-0.102,-0.118l-0.103,-0.119l-0.104,-0.117l-0.104,-0.117l-0.105,-0.117l-0.106,-0.115l-0.107,-0.116l-0.107,-0.114l-0.108,-0.114l-0.108,-0.113l-0.11,-0.113l-0.11,-0.112l-0.11,-0.111l-0.111,-0.11l-0.112,-0.11l-0.113,-0.11l-0.113,-0.108l-0.114,-0.108l-0.114,-0.107l-0.116,-0.107l-0.116,-0.106l-0.116,-0.105l-0.117,-0.104l-0.117,-0.104l-0.119,-0.103l-0.118,-0.102l-0.12,-0.102l-0.12,-0.101l-0.121,-0.1l-0.121,-0.099l-0.122,-0.099l-0.122,-0.098l-0.123,-0.097l-0.124,-0.097l-0.124,-0.096l-0.125,-0.095l-0.125,-0.094l-0.126,-0.093l-0.126,-0.093l-0.127,-0.092l-0.128,-0.091l-0.128,-0.091l-0.128,-0.09l-0.129,-0.089l-0.13,-0.088l-0.13,-0.087l-0.131,-0.087l-0.131,-0.086l-0.132,-0.084l-0.132,-0.085l-0.133,-0.083l-0.133,-0.083l-0.134,-0.082l-0.134,-0.081l-0.135,-0.08l-0.135,-0.079l-0.136,-0.079l-0.136,-0.078l-0.137,-0.077l-0.137,-0.076l-0.137,-0.075l-0.138,-0.074l-0.139,-0.074l-0.139,-0.073l-0.139,-0.072l-0.141,-0.071l-0.14,-0.07l-0.141,-0.07l-0.141,-0.068l-0.142,-0.068l-0.142,-0.067l-0.142,-0.066l-0.143,-0.065l-0.144,-0.065l-0.144,-0.063l-0.144,-0.063l-0.145,-0.062l-0.145,-0.06l-0.146,-0.06l-0.146,-0.06l-0.146,-0.058l-0.147,-0.057l-0.147,-0.057l-0.148,-0.055l-0.148,-0.055l-0.149,-0.054l-0.149,-0.053l-0.149,-0.052l-0.15,-0.051l-0.15,-0.05l-0.15,-0.05l-0.151,-0.048l-0.151,-0.048l-0.152,-0.047l-0.152,-0.045l-0.153,-0.045l-0.153,-0.044l-0.153,-0.043l-0.154,-0.042l-0.154,-0.041l-0.154,-0.041l-0.155,-0.039l-0.156,-0.038l-0.155,-0.038l-0.156,-0.037l-0.157,-0.035l-0.157,-0.035l-0.157,-0.034l-0.158,-0.032l-0.158,-0.032l-0.158,-0.031l-0.159,-0.03l-0.159,-0.029l-0.16,-0.028l-0.16,-0.027l-0.161,-0.026l-0.161,-0.025l-0.161,-0.024l-0.162,-0.023l-0.162,-0.023l-0.162,-0.021l-0.163,-0.02l-0.164,-0.019l-0.163,-0.018l-0.165,-0.018l-0.164,-0.016l-0.165,-0.015l-0.166,-0.014l-0.166,-0.013l-0.166,-0.012l-0.167,-0.011l-0.167,-0.011l-0.168,-0.009l-0.168,-0.008l-0.169,-0.007l-0.169,-0.005l-0.169,-0.005l-0.17,-0.004l-0.171,-0.003l-0.171,-0.001l-0.209,-0.001l-159.924,0l-0.209,0.001Z"/><text x="52.145px" y="168.48px" style="font-family:'MesloLGMForPowerline-Bold', 'Meslo LG M for Powerline', monospace;font-weight:700;font-size:147px;">K</text></svg>